<?xml version="1.0" standalone="no"?>
<!DOCTYPE svg PUBLIC "-//W3C//DTD SVG 20010904//EN"
 "http://www.w3.org/TR/2001/REC-SVG-20010904/DTD/svg10.dtd">
<svg version="1.0" xmlns="http://www.w3.org/2000/svg"
 width="200.000000pt" height="182.000000pt" viewBox="0 0 200.000000 182.000000"
 preserveAspectRatio="xMidYMid meet">

<g transform="translate(0.000000,182.000000) scale(0.100000,-0.100000)"
fill="#000000" stroke="none">
<path d="M953 1420 c-3 -11 -12 -20 -19 -20 -8 0 -14 -7 -14 -15 0 -8 7 -15
15 -15 12 0 15 -13 15 -55 0 -49 3 -57 24 -66 30 -14 76 -4 76 16 0 10 -10 15
-30 15 -29 0 -30 2 -30 45 0 41 2 45 25 45 16 0 25 6 25 15 0 9 -9 15 -25 15
-18 0 -25 5 -25 20 0 12 -7 20 -16 20 -9 0 -18 -9 -21 -20z"/>
<path d="M1150 1359 c-29 -98 -30 -124 -5 -124 15 0 21 8 25 35 4 31 8 35 35
34 17 0 38 -4 48 -8 13 -6 17 -3 17 13 0 15 -6 21 -23 21 -34 0 -62 23 -53 45
8 23 61 14 93 -17 l23 -21 0 30 c0 29 -3 31 -65 47 -35 9 -66 16 -69 16 -3 0
-15 -32 -26 -71z"/>
<path d="M802 1380 c-47 -20 -53 -89 -11 -131 17 -17 30 -20 61 -16 45 6 69
23 61 42 -4 12 -9 12 -29 -1 -15 -10 -33 -14 -49 -10 -31 8 -33 26 -2 26 31 0
67 27 67 50 0 42 -46 60 -98 40z m61 -32 c8 -24 -5 -38 -34 -38 -30 0 -38 17
-17 38 16 16 45 15 51 0z"/>
<path d="M580 1370 c-12 -7 -11 -20 9 -82 13 -40 26 -79 29 -87 3 -9 1 -12 -6
-7 -6 4 -20 -2 -32 -14 -25 -25 -42 -25 -64 -1 -26 29 -17 64 20 76 17 6 29
15 27 23 -13 38 -103 -20 -103 -68 0 -40 35 -80 71 -80 16 0 53 13 83 28 43
22 53 31 46 42 -6 8 -10 23 -10 33 0 24 45 22 71 -4 16 -16 26 -19 42 -12 21
10 21 10 -6 37 -19 19 -33 25 -47 21 -22 -7 -28 10 -6 18 17 7 26 41 16 57
-12 20 -40 4 -40 -23 0 -25 -17 -47 -37 -47 -7 0 -18 20 -24 45 -13 51 -19 58
-39 45z"/>
<path d="M1302 1273 c-32 -72 -32 -83 -2 -83 11 0 20 10 25 28 14 56 52 77 86
46 16 -14 18 -14 28 5 9 17 8 22 -10 31 -11 7 -32 9 -46 5 -17 -4 -23 -2 -18
6 7 10 -10 28 -26 29 -4 0 -20 -30 -37 -67z"/>
<path d="M367 1254 c-14 -14 -7 -35 11 -32 9 2 17 10 17 17 0 16 -18 25 -28
15z"/>
<path d="M1447 1238 c-27 -22 -39 -66 -25 -96 16 -33 61 -56 94 -48 32 9 66
63 59 96 -12 51 -86 79 -128 48z m83 -34 c22 -26 1 -69 -34 -69 -40 0 -54 26
-33 59 20 29 48 34 67 10z"/>
<path d="M262 1155 l-57 -54 23 -23 c22 -22 22 -22 22 -1 0 11 7 27 16 34 16
13 16 14 106 -95 16 -20 18 -20 35 -3 17 16 15 20 -41 76 -60 61 -65 81 -19
81 25 0 26 0 8 20 -10 11 -22 20 -27 20 -6 0 -35 -25 -66 -55z"/>
<path d="M390 1199 c0 -5 18 -37 41 -71 37 -54 43 -59 57 -45 14 14 11 21 -27
71 -38 51 -71 72 -71 45z"/>
<path d="M1594 1141 c-17 -10 -36 -33 -43 -50 -12 -26 -11 -34 3 -56 10 -16
26 -25 41 -25 33 0 32 -18 -2 -26 -23 -6 -32 -1 -59 30 -28 33 -33 35 -45 20
-11 -14 -8 -21 28 -55 63 -58 86 -54 162 27 50 53 60 68 50 80 -9 11 -15 11
-25 3 -11 -9 -14 -7 -14 8 0 49 -50 72 -96 44z m64 -33 c20 -20 14 -56 -13
-74 -24 -16 -27 -16 -45 1 -25 23 -25 26 1 59 22 28 39 32 57 14z"/>
<path d="M716 1014 c-34 -33 -9 -94 38 -94 21 0 56 27 56 43 0 3 -10 7 -22 9
-17 2 -24 11 -26 31 -4 30 -23 35 -46 11z"/>
<path d="M1186 1014 c-34 -33 -7 -94 42 -94 21 0 52 24 52 40 0 5 -10 10 -22
12 -17 2 -24 11 -26 31 -4 30 -23 35 -46 11z"/>
<path d="M905 770 c-10 -16 2 -27 48 -45 38 -14 46 -14 79 -1 41 18 55 33 41
47 -6 6 -23 4 -45 -6 -32 -13 -41 -13 -72 0 -42 18 -43 18 -51 5z"/>
</g>
</svg>
